# xmcd
#
# Track frame offsets:
#	150
#	19895
#	64485
#	106737
#	159682
#	173442
#
# Disc length: 2508
#
# Revision: 1
# Processed by: cddbd v1.5.1PL0 Copyright (c) Steve Scherf et al.
# Submitted via: CDex 1.51
# Normalized: r0:TDELIM( - )
#
DISCID=4509ca06
DTITLE=Wind Project of Schärding - 2005 02 Konzert
DYEAR=2005
DGENRE=Wind Band
TTITLE0=John Williams - March from 1941
TTITLE1=Frank Ticheli - An American Elegy
TTITLE2=Jerry Goldsmith and Dennis McCarthy - Star Trek through the Generations
TTITLE3=Sherman, Sherman and Gilkyson - Jungle Book
TTITLE4=Ronald Binge - Elisabeth Serenade
TTITLE5=Louis Prima - Sing Sing Sing
EXTD=YEAR: 2005
EXTT0=
EXTT1=
EXTT2=
EXTT3=
EXTT4=
EXTT5=
PLAYORDER=
